<svg width="122" height="96" viewBox="0 0 122 96" fill="none" xmlns="http://www.w3.org/2000/svg">
<path d="M120.075 39.8823V33.4866L99.9035 22.6631L79.7324 33.4866V39.8823L99.9035 49.7219L120.075 39.8823Z" fill="#FF0420"/>
<path d="M120.075 33.4866V39.8823L99.9035 49.7219M120.075 33.4866L99.9035 22.6631L79.7324 33.4866M120.075 33.4866L99.9035 43.8182L79.7324 33.4866M79.7324 33.4866V39.8823L99.9035 49.7219M99.9035 49.7219V55.6257" stroke="#FF0420" stroke-width="3" stroke-miterlimit="11.4737" stroke-linecap="round"/>
<path d="M53.6577 12.8235V19.2193L73.8289 29.0588L94 19.2193V12.8235L73.8289 2L53.6577 12.8235Z" fill="#26282E"/>
<path d="M53.6577 55.1336V61.5293L73.8289 71.3689L94 61.5293V55.1336L73.8289 44.3101L53.6577 55.1336Z" fill="#26282E"/>
<path d="M27.5829 39.8823V33.4866L47.754 22.6631L67.9252 33.4866V39.8823L47.754 49.7219L27.5829 39.8823Z" fill="#26282E"/>
<path d="M2 55.1336V61.5293L22.1711 71.3689L42.3422 61.5293V55.1336L22.1711 44.3101L2 55.1336Z" fill="#26282E"/>
<path d="M27.5829 84.1604V77.7647L47.754 66.9412L67.9252 77.7647V84.1604L47.754 94L27.5829 84.1604Z" fill="#26282E"/>
<path d="M79.7326 77.7647V84.1604L99.9037 94L120.075 84.1604V77.7647L99.9037 66.9412L79.7326 77.7647Z" fill="#26282E"/>
<path d="M73.8289 29.0588L53.6577 19.2193V12.8235L73.8289 2L94 12.8235V19.2193L73.8289 29.0588ZM73.8289 29.0588V34.9626M73.8289 71.3689L53.6577 61.5293V55.1336L73.8289 44.3101L94 55.1336V61.5293L73.8289 71.3689ZM73.8289 71.3689V77.2726M47.754 49.7219L67.9252 39.8823V33.4866L47.754 22.6631L27.5829 33.4866V39.8823L47.754 49.7219ZM47.754 49.7219V55.6256M2 61.5293V55.1336L22.1711 44.3101L42.3422 55.1336V61.5293L22.1711 71.3689L2 61.5293ZM27.5829 77.7647V84.1604L47.754 94L67.9252 84.1604V77.7647L47.754 66.9412L27.5829 77.7647ZM79.7326 84.1604V77.7647L99.9037 66.9412L120.075 77.7647V84.1604L99.9037 94L79.7326 84.1604Z" stroke="#26282E" stroke-width="3" stroke-miterlimit="11.4737" stroke-linecap="round"/>
</svg>
